<svg aria-hidden="true" style="position:absolute;width:0;height:0;overflow:hidden"
  xmlns="http://www.w3.org/2000/svg">
  <defs>
    <symbol id="icon-logo" viewBox="0 0 132 24">
      <path
        d="M4.98 13.28l-4.98-8.28h2.98l3.34 5.74h0.040l3.34-5.74h2.98l-4.98 8.28v5.72h-2.72v-5.72zM12.67 16.7v-9.4l2.3-2.3h7.2l2.3 2.3v9.4l-2.3 2.3h-7.2l-2.3-2.3zM20.73 16.68l1.020-1.020v-7.32l-1.020-1.020h-4.32l-1.020 1.020v7.32l1.020 1.020h4.32zM26.374 16.6v-11.6h2.72v10.66l1.020 1.020h3.92l1.020-1.020v-10.66h2.72v11.6l-2.4 2.4h-6.6l-2.4-2.4zM50.878 14.36v4.64h-2.72v-4.020l-1.2-1.34h-4.36v5.36h-2.72v-14h8.78l2.14 2.16v4.24l-1.36 1.38 1.44 1.58zM42.598 11.4h4.82l0.7-0.7v-2.72l-0.7-0.7h-4.82v4.12zM57.823 5h10.12v2.3h-7.4v3.54h6.82v2.26h-6.82v3.6h7.4v2.3h-10.12v-14zM69.452 5h2.44l6.24 9.5h0.040v-9.5h2.62v14h-2.44l-6.24-9.48h-0.040v9.48h-2.62v-14zM82.898 5h10.12v2.3h-7.4v3.54h6.82v2.26h-6.82v3.6h7.4v2.3h-10.12v-14zM105.527 14.36v4.64h-2.72v-4.020l-1.2-1.34h-4.36v5.36h-2.72v-14h8.78l2.14 2.16v4.24l-1.36 1.38 1.44 1.58zM97.247 11.4h4.82l0.7-0.7v-2.72l-0.7-0.7h-4.82v4.12zM107.323 16.7v-9.4l2.3-2.3h6.96l2.26 2.26v2.14h-2.72v-1.14l-0.94-0.94h-4.12l-1.020 1.020v7.32l1.020 1.020h4.16l0.98-0.98v-2.18h-3v-2.32h5.64v5.5l-2.3 2.3h-6.92l-2.3-2.3zM123.828 13.28l-4.98-8.28h2.98l3.34 5.74h0.040l3.34-5.74h2.98l-4.98 8.28v5.72h-2.72v-5.72z"></path>
    </symbol>
    <symbol id="icon-burger" viewBox="0 0 32 32">
      <path d="M5 7h22c0.552 0 1 0.448 1 1s-0.448 1-1 1h-22c-0.552 0-1-0.448-1-1s0.448-1 1-1z"></path>
      <path d="M5 12.333h22c0.552 0 1 0.448 1 1s-0.448 1-1 1h-22c-0.552 0-1-0.448-1-1s0.448-1 1-1z"></path>
      <path d="M5 17.667h22c0.552 0 1 0.448 1 1s-0.448 1-1 1h-22c-0.552 0-1-0.448-1-1s0.448-1 1-1z"></path>
      <path d="M5 23h22c0.552 0 1 0.448 1 1s-0.448 1-1 1h-22c-0.552 0-1-0.448-1-1s0.448-1 1-1z"></path>
    </symbol>
    <symbol id="icon-youtube" viewBox="0 0 32 32">
      <path
        d="M24.24 6c-1.36-.08-4.16-.16-8.4-.16h-.56c-4.08 0-6.8.08-8.16.24-1.84.16-3.12.64-3.84 1.28-.64.56-1.12 1.6-1.28 2.96-.08.88-.16 2.72-.16 5.52v.4c0 2.64.08 4.48.24 5.36.24 1.28.64 2.24 1.44 2.8.8.64 2.16 1.04 4.08 1.2 1.36.08 4.16.16 8.4.16h.56c4.08 0 6.8-.08 8.16-.24 1.84-.16 3.12-.64 3.84-1.28.64-.56 1.12-1.6 1.28-2.96.08-.88.16-2.72.16-5.52v-.4c0-2.64-.08-4.48-.24-5.36-.24-1.28-.64-2.24-1.44-2.8-.8-.64-2.16-1.04-4.08-1.2zm-3.12 9.84-8.8 5.28V10.56l8.8 5.28z" />
    </symbol>
    <symbol id="icon-facebook" viewBox="0 0 32 32">
      <path
        d="M19.52 4.64h.96v3.6h-1.2c-.48 0-.96 0-1.2.24s-.24.48-.24 1.04v1.28h2.64v3.04h-2.64v13.2h-4.08V13.76H11.6v-3.04h2.16V9.68c0-1.76.24-3.04.72-3.6.72-1.04 2.16-1.52 4.32-1.52.24.08.48.08.72.08z" />
    </symbol>
    <symbol id="icon-instagram" viewBox="0 0 32 32">
      <path
        d="M28.718 10.756a9.264 9.264 0 0 0-.596-3.145 6.547 6.547 0 0 0-3.743-3.737 9.42 9.42 0 0 0-3.108-.596c-1.368-.061-1.801-.078-5.273-.078s-3.916 0-5.274.078a9.413 9.413 0 0 0-3.106.596 6.541 6.541 0 0 0-3.743 3.737 9.288 9.288 0 0 0-.596 3.101c-.061 1.367-.08 1.8-.08 5.265s0 3.909.08 5.265a9.335 9.335 0 0 0 .596 3.104 6.548 6.548 0 0 0 3.744 3.735 9.37 9.37 0 0 0 3.106.639c1.369.061 1.803.08 5.274.08s3.916 0 5.274-.08a9.362 9.362 0 0 0 3.108-.595 6.555 6.555 0 0 0 3.743-3.737 9.35 9.35 0 0 0 .596-3.104c.061-1.365.08-1.798.08-5.265-.003-3.466-.003-3.906-.082-5.264zM15.99 22.531c-3.631 0-6.572-2.936-6.572-6.561s2.941-6.561 6.572-6.561c3.628 0 6.572 2.936 6.572 6.561s-2.944 6.561-6.572 6.561zm6.834-11.835a1.53 1.53 0 1 1 0-3.06 1.53 1.53 0 1 1 0 3.06z" />
      <path d="M15.992 19.976a4.004 4.004 0 1 0 0-8.009 4.004 4.004 0 0 0 0 8.009z" />
    </symbol>
  </defs>
</svg>
